<svg width="19" height="4" viewBox="0 0 19 4" fill="none" xmlns="http://www.w3.org/2000/svg">
<path d="M1.625 0.5C0.8 0.5 0.125 1.175 0.125 2C0.125 2.825 0.8 3.5 1.625 3.5C2.45 3.5 3.125 2.825 3.125 2C3.125 1.175 2.45 0.5 1.625 0.5ZM16.625 0.5C15.8 0.5 15.125 1.175 15.125 2C15.125 2.825 15.8 3.5 16.625 3.5C17.45 3.5 18.125 2.825 18.125 2C18.125 1.175 17.45 0.5 16.625 0.5ZM9.125 0.5C8.3 0.5 7.625 1.175 7.625 2C7.625 2.825 8.3 3.5 9.125 3.5C9.95 3.5 10.625 2.825 10.625 2C10.625 1.175 9.95 0.5 9.125 0.5Z" fill="#A6A3A4"/>
</svg>
